<?xml version="1.0" encoding="UTF-8"?>
<svg id="Layer_1" data-name="Layer 1" xmlns="http://www.w3.org/2000/svg" viewBox="0 0 500 497.76">
  <defs>
    <style>
      .cls-1 {
        fill: #b9baba;
      }

      .cls-1, .cls-2, .cls-3, .cls-4, .cls-5 {
        stroke-width: 0px;
      }

      .cls-3 {
        fill: #fff;
      }

      .cls-4 {
        fill: #fafafa;
      }

      .cls-5 {
        fill: #d3d3d3;
      }
    </style>
  </defs>
  <path class="cls-2" d="m175.14,116.25c.58-17.42-.03-33.62,4.56-49.39,1.34-4.62-.3-9.46-.86-14.19-1.07-9.1-.45-17.6,9.35-22.35,2.63-1.28,4.31-3.83,5.58-6.56,4.78-10.22,13.04-15.21,24.14-14.59,7.02.39,12.75-1.59,18.62-5.24,8.27-5.12,18.1-3.78,27.12-3.76,20.24.04,35.35,10.94,48.21,25.68,6.36,7.29,11.53,14.65,7.45,24.94-.18.46-.1,1.07,0,1.58,4.26,21.82,8.76,43.61,6.52,67.39,5.53-3.5,10.21-4.62,14.01-8.74,3.89-4.21,9.48-.9,12.87,2.11,10.8,9.58,23.38,8.23,35.88,6.51,5.03-.69,8.57-1.18,12.67,3.13,4.48,4.72,11.44,4.33,17.36,2.63,5.24-1.51,10.31-2.19,15.65-1.68,2.56.24,4.72,1.09,5.55,3.72.86,2.74.65,5.6-2.02,7.07-5.57,3.08-3.49,5.19.46,7.6,4.38,2.67,7.59,6.6,10.62,10.64,7.23,9.63,6.26,17.52-3,24.6-.81.62-1.88,1.04-2.89,1.23-15.17,2.86-17.69,6.36-19.43,21.59-1.78,15.67-2.26,31.7-11.12,45.89-3.05,4.88-1.6,11.84-6.62,16.5-2.3,2.14.64,4.43,2.46,5.73,14.57,10.41,25.02,24.61,33.31,39.88,5.96,10.98,16.31,13.73,25.61,18.44,7.08,3.59,10.36,8.09,11.14,15.74,1.13,11.04,2.18,22.02,1.71,33.15-.12,2.74,1.22,5.65,2.29,8.32,7.53,18.73,13.6,37.89,17.1,57.81,1.53,8.69.06,10.72-8.49,10.9-2.39.05-4.78.05-7.17,0q-13.25-.29-13.24,13.35c.02,6.35.51,12.72.11,19.04-.55,8.68-3.47,11.53-11.95,11.07-38.15-2.07-76.31,1.59-114.38.08-33.68-1.34-67.27.76-100.93-.22-47.15-1.37-94.38-1.45-141.55-.66-21.94.37-43.95,1.2-65.9,2.5-10.07.6-12.56-1.66-11.9-11.6.38-5.83-.73-10.94-3.83-15.87-9.03-14.36-8.58-30.9-10.28-46.89-.44-4.15-1.44-7.43-4.62-10.43-4.94-4.68-6.7-10.23-4.23-17.31,2.44-7,4.61-14.03,7.75-20.8,5.81-12.54,4.33-26.55,7.33-39.68,2.64-11.56,4.43-23.25,10.64-33.89,6.7-11.47,14.9-19.39,28.06-23.86,15.53-5.27,28.07-16.85,42.39-24.9,4.43-2.49,8.67-5.48,13.74-5.84,4.63-.34,5.95-2.6,5.86-6.62-.19-8.32-1-16.41-7.28-22.82-2.67-2.72-4.3-5.93-4.44-9.91-.61-17.43-.59-34.92-2.22-52.26-1.44-15.33,18.76-38.02,32.62-40.93,13.28-2.79,26.09-4.34,39.57,2.19Z"/>
  <path class="cls-3" d="m174.41,484.39c-44.21-2.74-87.63.5-131.08,1.35-6.01.12-7.67-1.5-7.99-7.28-1.29-23.74,3.11-47,5.48-70.41,1.41-13.97,4.21-27.8,5.59-41.77,1.28-12.9,5.32-24.99,10.58-36.48,4.21-9.19,13.51-14.72,20.62-21.77,20.72-20.56,46.35-31.06,74.95-34.9,4.86-.65,8.1-2.26,9.62-7.68,2.94-10.45,11.21-15.54,21.03-18.72,4.5-1.45,5.45.26,5.45,4.43.02,13.52.36,27.05.51,40.57.04,4.05.08,7.91,3.96,10.62,2.94,2.06,2.95,5.49,3,8.68.1,6.63.71,13.34-.05,19.89-1.33,11.4,3.55,19.39,12.22,25.81,1.71,1.27,4.3,2.53,4.12,4.57-1.01,11.48,8.79,16.01,14.53,23.06,2.49,3.06,3.6,6.08,4.17,9.92,2.35,15.77,3.66,31.56,3.43,47.52-.09,6.39,2.09,12.52,3.93,18.61,2.14,7.04.52,14.25.98,21.36.28,4.29-3.89,2.54-6.09,2.56-19.9.14-39.8.08-58.98.08Z"/>
  <path class="cls-3" d="m343.71,250.15c1.2-.22,2.11-.72,2.7-.46,24.35,10.89,50.6,19.07,68.37,40.46,12.06,14.52,21.87,30.1,27.21,49.39,5.97,21.57,7.57,43.68,12.88,65.18,1.06,4.31,1.31,9.01.95,13.44-1.6,19.7,4.43,38.88,3.74,58.53-.2,5.71-1.36,7.54-7.63,7.49-31.27-.29-62.55-.08-93.81.35-6.09.08-8.65-1.69-8.8-7.83-.55-22.85.68-45.58,4.69-68.08,1.85-10.4,7.89-19.52,9.73-30.14,1.91-11.04-.31-21.66-1.32-32.4-.76-8.05,0-14.9,5.84-21.29,6.42-7.02,6.21-13.11.89-20.89-1.28-1.87-3.19-2.86-.92-5.88,8.69-11.56,7.91-16.96-5.14-21.85-8.16-3.05-12.49-7.13-14.23-15.35-.78-3.68-3.31-6.98-5.15-10.67Z"/>
  <path class="cls-3" d="m262.92,53.35c16.8,2.33,34.4,4.1,42.5,22.24,4.47,10.02,8.95,19.81,9.93,31.81,2.76,33.7-2.55,65.89-12.08,97.8-2.23,7.45-5.89,14.01-11.4,19.74-4.57,4.75-8.44,10.22-12.29,15.6-10.15,14.19-29.22,15.94-40.26,2.52-21.91-26.62-40.12-55.22-45.49-90.39-2.67-17.5-7.94-34.63-6.9-52.63.22-3.75-.47-7.55,4.88-8.33,2.52-.37,2.6-3.04,3.45-4.92q11.27-25.05,38.61-28.36c9.71-1.15,18.82-5.81,29.04-5.07Z"/>
  <path class="cls-3" d="m216.88,290.59c6.67,6.68,13.88,12.43,20.74,18.55,10.67,9.53,24.88,12.96,35.54,22.35,3.32,2.92,8.4,4.39,12.19-.1,9.57-11.35,21.44-20.6,29.89-32.96,7.62-11.13,7.88-28.98.67-40.12-.83-1.29-1.68-2.9-1.67-4.35.06-8.95-.5-17.86-2.12-27.39,7.53,2.3,9.62,8.61,13.21,13.2,5.21,6.66,10.09,13.69,14.26,21.04,5.73,10.1,4.62,14.84-5.67,19.73-6.65,3.16-8.05,7.61-7.73,13.85,1.31,25.79-1.4,51.48-3.98,76.97-2.71,26.75-3.98,53.3-1.78,80,.75,9.02.83,17.99.95,26.99.04,2.77-.04,5.54-4,5.33-15.89-.84-31.67,3.17-47.66.84-5.44-.79-7.22-2.62-6.74-8.09,2.39-26.83.14-53.44-4.6-79.87-1.45-8.11-9.16-12.9-11.4-20.74-.94-3.29-4.13-5.91.77-9.1,2.69-1.75,1.21-5.32-.3-7.98-8.07-14.23-12.01-30.46-22.42-43.71-5.22-6.64-6.89-15.68-8.16-24.43Z"/>
  <path class="cls-3" d="m186.3,170.26c.73,8.11,4.18,15.55,7.95,22.31,4.93,8.84,2.24,15.6-2.73,22.46-3.78,5.21-7.29,10.43-8.06,17.01-.06.52.02,1.29-.29,1.52-7.08,5.5-16.14,7.38-23.3,12.97-3.4,2.66-7.71.27-11.33-1.31-8.1-3.53-12.45-10.56-15.76-18.17-3.01-6.89-5.7-13.79-13.32-16.97-2.29-.95-3.1-2.87-2.85-5.16,1.86-17.21-3.12-34.14-1.99-51.36.55-8.41,3.99-13.97,11.91-16.89,4.72-1.73,9.49-3.43,13.96-5.7,11.93-6.05,23.77-3.08,35.69-.2,3.15.76,2.95,3.41,3.44,5.61,1.21,5.4,2.26,10.85,3.37,16.27,1.27,3.87,3.06,8.51-.89,11.09-3.24,2.12-8.08-.34-11.96,1.16,5.19,2.43,13.69-5.59,16.17,5.34Z"/>
  <path class="cls-3" d="m308.54,294.12c-8.6,9.26-17.26,18.46-25.76,27.81-2,2.2-3.7,3.69-6.62,1.64-16.74-11.71-35.99-19.9-49.86-35.63,3.93-4.29,13.76-3.39,18.78,1.81,2.01,2.08,3.5,4.62,5.47,6.74,1.4,1.51,3.03,3.63,5.26,1.89,1.88-1.47.29-3.33-.57-4.91-7.33-13.48-15.71-16.43-29.87-10.51-.75.31-1.49.42-2.24.04-4.02-5.58-8.11-11.11-12-16.77-1.17-1.7-2.5-3.78-2.52-5.69-.11-12.99.09-25.99.26-38.98.02-1.57.35-3.33,2.14-3.91,2.35-.77,3.25,1.21,4.3,2.67,5.27,7.31,10.51,14.65,15.76,21.98,15.46,21.59,40.22,21.16,55.07-.8,3.26-4.81,7.29-9.09,10.85-13.71,2.5-3.25,4.08-2.35,5.58.85,3.26,6.97,3.04,14.42,2.94,21.79-.08,6.13.87,11.61,6.29,15.38,1.99,1.79,1.89,4.21,1.75,6.53-.19,3.27-1.21,5.55-5.38,4.39-8.36-2.31-16.23.34-23.98,3.02-8.82,3.06-13.68,13.96-10.66,24.01,3.25-1.41,3.56-4.56,4.07-7.16,1.79-9.12,7.42-13.51,16.38-14.41,2.62-.26,5.2-1.14,7.83-1.04,3.26.12,7.5-1.95,9.49,1.69,2.22,4.05.74,8.16-2.78,11.3Z"/>
  <path class="cls-3" d="m326.31,220.83c-4-2.52-8.01-5-11.98-7.56-2.71-1.74-2.65-4.43-.49-5.94,8.17-5.71,9.9-15.43,14.94-23.06,6.3-9.54,22.11-12.3,30.94-4.81,5.34,4.53,8.68,10.72,17.25,2.5,6.18-5.92,26.47,8.78,26.73,18.3.16,5.91-2.78,12.33,4.99,16.8,2.88,1.66.3,7.73-.97,11.22-3.36,9.28-8.45,17.88-11.42,27.37-1.15,3.68-3.34,3.83-6.71,2.09-14.54-7.52-28.95-15.36-44.71-20.2-2.96-.91-3.93-2.34-2.18-5.1.84-2.49,4.62.97,4.96-2.49-.11-.96-.2-1.9-.31-2.84-2.33-4.81-7.32-4.03-11.26-5.1-3.11-.84-6.44-1.45-9.77-1.21Z"/>
  <path class="cls-3" d="m329.77,468.75c-2.99-26.97-2.94-54.08-.78-81.01,2.49-31.13,5.89-62.16,6-93.46.03-7.99,8.16-9.86,13.91-12.25,5.16-2.15,10.67.23,14.43,4.3,2.98,3.23-.41,5.13-2.86,6.69-10.08,6.42-10.16,6.61-.33,14.25,4.64,3.61,6.09,7.92,1.75,12.08-9.57,9.16-8.97,20.32-7.3,31.83,2.02,13.83,2.42,27.62-3.5,40.61-3.68,8.08-6.41,16.29-7.28,25.06-2,20.05-3.62,40.13-2.88,60.32.12,3.26,1.5,7.26-4.39,7.12-4.66-.11-7.66-1.16-6.85-6.78.41-2.86.07-5.82.07-8.74Z"/>
  <path class="cls-3" d="m24.39,443.96c-2.68-8.59-2.42-17.33-3.27-25.86-.45-4.49-1.29-8.34-5.18-10.98-3.87-2.64-4.65-6.13-3.11-10.41.72-1.99.81-4.29,1.84-6.07,12.05-20.97,9.73-45.29,15.75-67.68,2.63-9.78,7.48-17.97,13.12-25.99,1.54-2.18,3.28-4.13,6.02-4.95,19.94-5.94,35.58-19.72,53.43-29.47,1.39-.76,2.54-2.08,4-2.57,2.98-1,6.23-4.42,9.12-.16,2.61,3.85.72,11.69-3.42,12.97-25.53,7.85-43.05,26.64-60.51,45.04-9.65,10.17-13.08,24.29-15.07,37.85-4.06,27.79-9.01,55.5-10.46,83.63-.08,1.6-.27,3.19-2.27,4.65Z"/>
  <path class="cls-3" d="m199.05,251.35c-.45,12.23,2.69,23.76,6.43,35.26,3.08,9.48,7.52,18.63,8.07,28.83.09,1.74.99,2.94,2.27,3.96,11.71,9.28,14.77,23.37,20.16,36.17.74,1.75,1.3,3.44-1.08,4.64-7.06,3.54-4.83,7.49-.45,11.57,1.53,1.43,3.07,2.94,3.34,5.22-2.55,2.23-4.11.16-5.76-1.35-2.42-2.22-4.49-4.85-7.44-6.46-2.16-1.11-2.75-3.14-2.81-5.3-.17-6.11-3.37-10.39-8.05-13.85-6.62-4.89-9.97-11.06-9.34-19.67.56-7.62-.16-15.32-.14-22.99,0-5.06-1.75-9.25-5.39-12.7-1.49-8.03.86-16.27-1.31-24.27.89-6.5-3.5-12.9-.34-19.44.78-.67,1.4-.55,1.86.37Z"/>
  <path class="cls-3" d="m468.83,366.28c-2.46,10.34,1.96,20.33,6.16,30.41,5.11,12.27,8.47,25.07,11.36,38.02,1.16,5.17-.45,6.87-5.47,6.28-2.1-.25-4.25-.28-6.36-.14-5.95.42-7.9-2.34-7.57-8.11,1.54-26.73-5.45-52.48-9.55-78.55-.89-5.66-3.66-11.01-5.47-16.53-1.2-3.66-.25-5.16,3.75-3.54,6.31,2.54,12.05,5.19,11.81,13.69-.16,5.79.8,11.61,1.33,18.46Z"/>
  <path class="cls-4" d="m224.58,369.19c5.92.05,7.09,8.11,13.21,7.82,17.09,23.41,17.23,50.68,17.54,77.85.09,7.92-.46,15.84-.79,23.76-.1,2.25.5,5.22-3.2,5.16-3.02-.05-2.88-2.63-3.08-4.65-3.05-30.11-6.26-60.21-8.92-90.36-.66-7.48-7.7-9.56-10.42-15.11-.87-1.77-2.86-2.99-4.33-4.46Z"/>
  <path class="cls-2" d="m308.54,294.12c.7-1.42,1.59-2.77,2.05-4.26,1.42-4.62,1.83-8.5-5.25-6.9-2.54.58-5.25.46-7.88.64-10.76.75-17.66,5.49-18.46,17.13-.23,3.37-1.1,7.66-5.77,6.86-5.2-.89-4.4-5.59-3.37-8.99,2.64-8.67,2.13-19.6,14.71-21.74,9.1-1.55,18.01-6.22,27.42-1.04,1.46-3.37.79-6.71-.18-10.04,2.04.64,3.2,2.51,3.11,4.15-.35,6.45-.96,12.91-1.9,19.3-.33,2.24-1.69,4.46-4.49,4.89Z"/>
  <path class="cls-3" d="m129.71,236c6.01,8.37,13.37,13.85,22.9,17.37,4.66,1.72.11,7.3-2.38,8.12-6.95,2.29-14.46,4.65-21.56,4.16-5.85-.4-4.85-7.65-3.56-11.57,1.88-5.73,3.5-11.43,4.6-18.08Z"/>
  <path class="cls-2" d="m223.13,283c6.9-8.14,22.43-7.24,28.27,1.55,2.2,3.3,4.68,6.42,7.03,9.62,1.8,2.45,2.25,4.99-.41,6.98-2.45,1.84-5.07,1.29-7.14-.86-1.27-1.32-2.44-2.82-3.28-4.44-4.75-9.06-12.39-10.13-21.29-7.91-2.25-.88-3.32-2.52-3.18-4.94Z"/>
  <path class="cls-2" d="m186.3,170.26c-1.12-3.07-2.98-3.82-6.37-3.26-3.57.59-7.34-.34-10.97.96-1.71.61-3.94,1.07-4.48-1.51-.49-2.31,1.59-3.46,3.27-3.79,2.81-.55,5.9-1.06,8.61-.43,6.01,1.39,8.37-.12,6.62-6.41-.27-.97-.02-2.09-.01-3.14,2.72,5.56,3.55,11.48,3.33,17.59Z"/>
  <path class="cls-3" d="m199.05,251.35c-.62-.12-1.24-.25-1.86-.37-1.74-6.05.5-12.58-2.45-18.59-.98-1.99.4-4.42,2.86-4.69,2.7-.29,2.57,2.29,2.51,3.96-.23,6.57-.69,13.13-1.06,19.69Z"/>
  <path class="cls-2" d="m326.31,220.83c8.27-3.76,15.53.24,22.85,3.14,1.86.73,1.49,2.42-.18,3.53-7.18-.07-14.11-1.21-20.56-4.56-.7-.7-1.41-1.4-2.11-2.1Z"/>
  <path class="cls-3" d="m328.42,222.94c7.22-.12,13.8,2.61,20.56,4.56,0,1.01,0,2.02,0,3.02-1.65.88-2.58-.09-3.41-1.33-3.64-.63-7.28-1.27-10.93-1.87-2.8-.46-6.14-.09-6.22-4.39Z"/>
  <path class="cls-1" d="m197.54,270.42c3.14,7.94.86,16.18,1.31,24.27-2.87-7.96-.96-16.17-1.31-24.27Z"/>
  <path class="cls-2" d="m345.56,229.2c1.14.44,2.27.88,3.41,1.33.8.99,2.09,1.96,1.31,3.38-.9,1.65-2.09.61-3.27.07-1.38-.63-2.88-1.01-4.32-1.5.96-1.09,1.91-2.18,2.87-3.27Z"/>
  <path class="cls-2" d="m272.23,130.11c-7.87,7.15-6.83,26.53,1.99,32.8,2.31,1.64,5.23,3.18,3.48,5.93-1.93,3.04-5.28,1.35-7.8-.14-1.55-.92-3.19-2.13-4.08-3.63-5.45-9.23-7.25-19.47-5.4-29.79,1.87-10.44,5.58-12.95,16.27-12.85,8.42.09,16.84-2.11,25.23-.03,2.41.6,4.61,1.76,4.3,4.8-.3,2.96-2.69,2.76-4.81,2.84-9.72,2.45-19.45-1.05-29.17.07Z"/>
  <path class="cls-2" d="m228.5,124.16c3.42-.17,6.84-.4,10.26-.48,2.59-.06,5.84-.51,5.94,3.28.09,3.12-2.67,3.35-5.14,3.51-4.73.29-9.45.85-14.17.95-5.53.12-11.08-.32-15.88,3.36-1.78,1.37-4.23,1.84-5.72-.14-1.91-2.52.14-4.34,2.01-5.91,6.75-5.65,14.87-4.33,22.71-4.57Z"/>
  <path class="cls-2" d="m299.51,131.88c2.24,1.45,6.75,1.07,5.84,5.15-.84,3.77-4.59,2.59-7.4,2.45-.79-.04-2.04-.55-2.28-.23-4.71,6.23-9.44,4.84-14.83.75-1.33-1.01-4.52.04-4.67-2.88-.14-2.71.72-5.22,4.17-5.47,6.42-2.05,12.82-2.37,19.18.23Z"/>
  <path class="cls-2" d="m224.22,134.85c2.38,0,3.96-.04,5.54,0,2.81.08,6.53-.67,6.78,3.4.22,3.47-3.88,2.61-5.57,3.99-4.77,3.89-8.89,5.31-14.05.82-.83-.72-3.42.5-5.16.95-2.24.58-4.92,1.92-5.96-1.2-1-3.02,1.48-5.38,3.82-5.98,4.99-1.28,10.08-2.88,14.6-1.97Z"/>
  <path class="cls-2" d="m275.96,180.25c-2.89,4.14-8.05,4.6-12.45,6.22-1.4.52-3.57-1.35-2.95-2.82,1.89-4.51,5.35-7.88,10.27-8.73,3.03-.52,4.69,1.78,5.13,5.33Z"/>
  <path class="cls-2" d="m245.16,186.01c-3.69.12-7.55.53-7.63-4.56-.05-3.07,2.47-3.99,5.02-3.61,3.74.55,8.98-.03,9.16,5.38.16,4.65-4.32,2.1-6.55,2.79Z"/>
  <path class="cls-5" d="m299.51,131.88c-6.39-.08-12.79-.15-19.18-.23-2.32-2.49-5.48-.58-8.09-1.54,9.72-2.65,19.44-2.03,29.17-.07-.63.61-1.26,1.23-1.9,1.84Z"/>
  <path class="cls-2" d="m177.28,172.81c2.18.84,7.49-.63,6.21,3.08-.9,2.61-5.48,5.8-10.05,5.71-1.84-.04-3.94-3.07-5.45.05-1.21,2.5.61,4.45,2.14,6.36,6.22,7.77,4.14,6.89-3.19,11.47-8.66,5.4-15.66-.02-23.19,1.34-1.54.28-2.69.05-3.03-1.52-.38-1.79.62-3.2,2.23-3.71,3.74-1.19,7.27-.57,10.58,1.64,6.04,4.01,8.79-2.85,13.21-4.24.9-.28-.3-1.72-.71-2.63-5.27-11.85-1.57-17.74,11.24-17.54Z"/>
  <path class="cls-2" d="m138.95,173.57c1.87.33,3.94.61,5.97,1.07,1.96.44,2.57,1.79,1.51,3.45-1.96,3.07-17.64,4.81-19.93,2.17-1.86-2.14.15-3.34,1.63-4.24,3.24-1.95,7.02-1.77,10.82-2.45Z"/>
  <path class="cls-2" d="m138.44,168.22c-3.88.24-7.95-.86-11.47,1.85-1.18.91-2.66,2.35-3.92.28-.91-1.5-.24-2.98.99-4.25,3.22-3.35,18-3.9,21.14-.67.5.51,1.04,1.32,1,1.96-.07,1.22-1.15,1.75-2.26,1.65-1.83-.16-3.65-.54-5.48-.82Z"/>
  <path class="cls-2" d="m381.46,234.85c3.82.5,9.51-.11,9.96,4.13.36,3.37-5.85,3.96-8.93,5.46-3.33,1.62-6.92-4.1-11.73-3.1-.91.19-.09-2.72,1.03-3.75,2.73-2.5,6.18-2.75,9.66-2.74Z"/>
  <path class="cls-2" d="m383.15,231.89c-3.96.38-8.11-.49-12.2-1.58-1.43-.38-3.21-1.26-2.89-3.2.38-2.26,2.48-1.81,3.79-1.39,5.16,1.63,10.44,1.4,15.71,1.46,1.99.02,4.98-.64,4.9,2.37-.07,2.82-2.98,2.29-5.03,2.34-1.32.03-2.64,0-4.29,0Z"/>
</svg>